<svg xmlns="http://www.w3.org/2000/svg" width="40" height="40" viewBox="0 0 40 40" fill="none">
<g clip-path="url(#clip0)">
<path d="M27.9012 23.457C26.6716 23.457 25.4815 23.2595 24.3753 22.8941C24.0346 22.7854 23.6444 22.8644 23.3728 23.1361L21.2 25.3138C18.4 23.8916 16.1136 21.6052 14.6914 18.8101L16.8642 16.6274C17.1358 16.3558 17.2148 15.9657 17.1062 15.6249C16.7408 14.5188 16.5432 13.3286 16.5432 12.099C16.5432 11.5508 16.1037 11.1113 15.5555 11.1113H12.0987C11.5555 11.1113 11.1111 11.5508 11.1111 12.099C11.1111 21.373 18.6271 28.8891 27.9012 28.8891C28.4494 28.8891 28.8889 28.4496 28.8889 27.9015V24.4447C28.8889 23.8965 28.4494 23.457 27.9012 23.457Z" fill="#fa7c33"/>
</g>
<circle cx="20" cy="20" r="19.5" stroke="#fa7c33"/>
<defs>
<clipPath id="clip0">
<rect x="11.1111" y="11.1113" width="17.7778" height="17.7778" fill="white"/>
</clipPath>
</defs>
</svg>