<svg width="40" height="40" viewBox="0 0 40 40" fill="none" xmlns="http://www.w3.org/2000/svg">
<circle cx="20" cy="20" r="19.5" stroke="#fa7c33"/>
<g clip-path="url(#clip0)">
<path d="M16.981 11.1113H22.9868C24.0079 11.1113 24.8755 11.9439 24.8755 12.9646V27.0379C24.8755 28.0587 24.0263 28.8891 23.0052 28.8891L16.9895 28.8826C15.9686 28.8826 15.1333 28.052 15.1333 27.0311L15.1246 12.9636C15.1247 11.9392 15.9559 11.1113 16.981 11.1113ZM20.8516 12.2225H19.1091C18.956 12.2225 18.8313 12.3467 18.8313 12.5002C18.8313 12.6537 18.956 12.778 19.1091 12.778H20.8516C21.005 12.778 21.1293 12.6537 21.1293 12.5002C21.1293 12.3467 21.005 12.2225 20.8516 12.2225ZM21.8986 12.3109C21.7956 12.2081 21.6083 12.2067 21.5055 12.3109C21.4539 12.3623 21.4234 12.4344 21.4234 12.5081C21.4234 12.5804 21.4539 12.6524 21.5055 12.704C21.5567 12.7555 21.6292 12.7859 21.7013 12.7859C21.7749 12.7859 21.8456 12.7555 21.8986 12.704C21.9498 12.6526 21.9791 12.5804 21.9791 12.5081C21.9792 12.4344 21.9498 12.3623 21.8986 12.3109ZM20.0364 28.3386C20.4947 28.3386 20.8675 27.9655 20.8675 27.5073C20.8675 27.0489 20.4947 26.676 20.0364 26.676C19.578 26.676 19.2053 27.0489 19.2053 27.5073C19.2053 27.9655 19.5782 28.3386 20.0364 28.3386ZM15.9868 26.1111H23.9033V13.7503H15.9868V26.1111Z" fill="#fa7c33"/>
</g>
<defs>
<clipPath id="clip0">
<rect width="17.7778" height="17.7778" transform="matrix(-1 0 0 1 28.8889 11.1113)" fill="white"/>
</clipPath>
</defs>
</svg>
