<svg width="32" height="32" viewBox="0 0 32 32" fill="none" xmlns="http://www.w3.org/2000/svg">
<path d="M31.7479 11.0764C31.5645 10.8748 31.3028 10.759 31.0304 10.759H30.3636C30.2371 10.759 30.1141 10.7759 29.9962 10.8062V8.22168C29.9962 7.13452 29.1117 6.25 28.0243 6.25H17.503C16.9014 6.25 16.3621 6.52124 16.0001 6.94751C15.6383 6.52124 15.099 6.25 14.4972 6.25H3.97591C2.88851 6.25 2.00399 7.13452 2.00399 8.22168V10.8062C1.88631 10.7759 1.76302 10.759 1.63656 10.759H0.969809C0.697348 10.759 0.435629 10.8748 0.25228 11.0764C0.0689299 11.2781 -0.0214021 11.5496 0.00447685 11.8208L0.867758 20.8865C0.940024 21.6455 1.56966 22.2178 2.33187 22.2178H2.43343L2.00887 25.1899C1.98958 25.3245 2.02962 25.4607 2.11873 25.5632C2.20785 25.6658 2.337 25.7249 2.47274 25.7249H3.47494C3.66244 25.7249 3.83187 25.613 3.9056 25.4407L5.28695 22.2178H5.97982C6.23861 22.2178 6.44857 22.0081 6.44857 21.749C6.44857 21.4902 6.23861 21.2803 5.97982 21.2803H2.33187C2.0555 21.2803 1.82723 21.0728 1.80111 20.7976L0.937582 11.7319C0.937338 11.728 0.936362 11.7178 0.945883 11.707C0.955649 11.6965 0.965903 11.6965 0.969809 11.6965H1.63656C1.89437 11.6965 2.11507 11.8809 2.16122 12.1345L3.00619 16.7812V17.24C3.00619 18.051 3.66585 18.7107 4.47689 18.7107H14.9981C15.3851 18.7107 15.7374 18.5603 16.0001 18.3152C16.263 18.5603 16.6153 18.7107 17.002 18.7107H27.5233C28.3343 18.7107 28.994 18.051 28.994 17.24V16.7812L29.8389 12.1345C29.8851 11.8806 30.1058 11.6965 30.3636 11.6965H31.0304C31.0343 11.6965 31.0445 11.6965 31.0543 11.707C31.0638 11.7178 31.0628 11.728 31.0626 11.7319L30.1991 20.7976C30.1729 21.0728 29.9447 21.2803 29.6683 21.2803H7.98397C7.72518 21.2803 7.51522 21.4902 7.51522 21.749C7.51522 22.0081 7.72518 22.2178 7.98397 22.2178H26.7132L28.0946 25.4407C28.1683 25.613 28.338 25.7249 28.5255 25.7249H29.5274C29.6632 25.7249 29.7923 25.6658 29.8814 25.5632C29.9705 25.4607 30.0106 25.3245 29.9915 25.1899L29.567 22.2178H29.6683C30.4305 22.2178 31.0601 21.6455 31.1324 20.8865L31.9957 11.8208C32.0216 11.5493 31.9312 11.2781 31.7479 11.0764ZM3.16585 24.7874H3.01327L3.38045 22.2178H4.26693L3.16585 24.7874ZM3.97591 7.1875H14.4972C15.0675 7.1875 15.5313 7.65161 15.5313 8.22168V13.7329C15.5313 14.0269 15.2921 14.2661 14.9981 14.2661H4.47689C4.13045 14.2661 3.81185 14.3867 3.56014 14.5879L3.08358 11.9668C3.05672 11.8193 3.00741 11.6812 2.94149 11.5537V8.22168C2.94149 7.65137 3.4056 7.1875 3.97591 7.1875ZM14.9981 17.7732H4.47689C4.1827 17.7732 3.94369 17.5339 3.94369 17.24V15.7371C3.94369 15.4429 4.18294 15.2036 4.47689 15.2036H14.9981C15.2921 15.2036 15.5313 15.4429 15.5313 15.7371V17.24C15.5313 17.5339 15.2921 17.7732 14.9981 17.7732ZM28.0567 17.24C28.0567 17.5339 27.8175 17.7732 27.5233 17.7732H17.002C16.7081 17.7732 16.4688 17.5339 16.4688 17.24V15.7368C16.4688 15.4429 16.7081 15.2036 17.002 15.2036H25.0181C25.2769 15.2036 25.4869 14.9939 25.4869 14.7349C25.4869 14.4761 25.2769 14.2661 25.0181 14.2661H17.002C16.7081 14.2661 16.4688 14.0269 16.4688 13.7329V8.22192C16.4688 7.65161 16.9327 7.1875 17.503 7.1875H28.0243C28.5946 7.1875 29.0584 7.65161 29.0584 8.22192V11.5537C28.9925 11.6812 28.9432 11.8193 28.9166 11.9668L28.44 14.5881C28.1883 14.387 27.8697 14.2661 27.5233 14.2661H27.0225C26.7635 14.2661 26.5538 14.4761 26.5538 14.7349C26.5538 14.9939 26.7635 15.2036 27.0225 15.2036H27.5233C27.8175 15.2036 28.0565 15.4429 28.0565 15.7368V17.24H28.0567ZM28.9869 24.7874H28.8343L27.7332 22.2178H28.6197L28.9869 24.7874Z" fill="#fa7c33"/>
<path d="M6.98682 10.6946C7.24561 10.6946 7.45557 10.4846 7.45557 10.2258C7.45557 9.96704 7.24561 9.75708 6.98682 9.75708H6.98169C6.7229 9.75708 6.51562 9.96704 6.51562 10.2258C6.51562 10.4846 6.72803 10.6946 6.98682 10.6946Z" fill="#fa7c33"/>
<path d="M25.0183 9.75708H25.0132C24.7542 9.75708 24.5469 9.96704 24.5469 10.2258C24.5469 10.4846 24.7593 10.6946 25.0183 10.6946C25.2771 10.6946 25.4871 10.4846 25.4871 10.2258C25.4871 9.96704 25.2771 9.75708 25.0183 9.75708Z" fill="#fa7c33"/>
<path d="M11.4958 10.6946C11.7549 10.6946 11.9646 10.4846 11.9646 10.2258C11.9646 9.96704 11.7549 9.75708 11.4958 9.75708H11.491C11.2319 9.75708 11.0247 9.96704 11.0247 10.2258C11.0247 10.4846 11.2371 10.6946 11.4958 10.6946Z" fill="#fa7c33"/>
<path d="M20.5142 9.75708H20.509C20.2502 9.75708 20.0427 9.96704 20.0427 10.2258C20.0427 10.4846 20.2551 10.6946 20.5142 10.6946C20.7729 10.6946 20.9829 10.4846 20.9829 10.2258C20.9829 9.96704 20.7729 9.75708 20.5142 9.75708Z" fill="#fa7c33"/>
</svg>
