<svg width="32" height="32" viewBox="0 0 32 32" fill="none" xmlns="http://www.w3.org/2000/svg">
<path d="M31.4667 18.1333H30.9333V16.5333C30.9319 15.4743 30.304 14.5164 29.3333 14.0928V5.86666C29.3332 5.65466 29.2076 5.46293 29.0133 5.37813C29.2214 5.04466 29.3322 4.65973 29.3333 4.26666C29.3333 3.08846 28.3782 2.13333 27.2 2.13333C26.0218 2.13333 25.0667 3.08846 25.0667 4.26666C25.0689 4.64226 25.1713 5.01046 25.3632 5.33333H6.6368C6.82873 5.01046 6.93113 4.64226 6.93333 4.26666C6.93333 3.08846 5.9782 2.13333 4.8 2.13333C3.6218 2.13333 2.66667 3.08846 2.66667 4.26666C2.6678 4.65973 2.7786 5.04466 2.98667 5.37813C2.7924 5.46293 2.6668 5.65466 2.66667 5.86666V14.0928C1.696 14.5164 1.06807 15.4743 1.06667 16.5333V18.1333H0.533333C0.2388 18.1333 0 18.3721 0 18.6667V26.1333C0 26.4279 0.2388 26.6667 0.533333 26.6667H1.06667V29.3333C1.06667 29.6279 1.30547 29.8667 1.6 29.8667H3.73333C4.02787 29.8667 4.26667 29.6279 4.26667 29.3333V26.6667H27.7333V29.3333C27.7333 29.6279 27.9721 29.8667 28.2667 29.8667H30.4C30.6945 29.8667 30.9333 29.6279 30.9333 29.3333V26.6667H31.4667C31.7612 26.6667 32 26.4279 32 26.1333V18.6667C32 18.3721 31.7612 18.1333 31.4667 18.1333ZM27.2 3.2C27.7891 3.2 28.2667 3.67753 28.2667 4.26666C28.2667 4.8558 27.7891 5.33333 27.2 5.33333C26.6109 5.33333 26.1333 4.8558 26.1333 4.26666C26.1333 3.67753 26.6109 3.2 27.2 3.2ZM4.8 3.2C5.38913 3.2 5.86667 3.67753 5.86667 4.26666C5.86667 4.8558 5.38913 5.33333 4.8 5.33333C4.21087 5.33333 3.73333 4.8558 3.73333 4.26666C3.73333 3.67753 4.21087 3.2 4.8 3.2ZM3.73333 6.4H28.2667V13.8667H26.1195C26.4724 13.4078 26.6647 12.8456 26.6667 12.2667V11.2C26.6649 9.728 25.472 8.53507 24 8.53333H19.7333C18.2613 8.53507 17.0684 9.728 17.0667 11.2V12.2667C17.0686 12.8456 17.2609 13.4078 17.6139 13.8667H14.3861C14.7391 13.4078 14.9314 12.8456 14.9333 12.2667V11.2C14.9316 9.728 13.7387 8.53507 12.2667 8.53333H8C6.528 8.53507 5.33507 9.728 5.33333 11.2V12.2667C5.33527 12.8456 5.5276 13.4078 5.88053 13.8667H3.73333V6.4ZM25.6 11.2V12.2667C25.6 13.1503 24.8837 13.8667 24 13.8667H19.7333C18.8497 13.8667 18.1333 13.1503 18.1333 12.2667V11.2C18.1333 10.3163 18.8497 9.6 19.7333 9.6H24C24.8837 9.6 25.6 10.3163 25.6 11.2ZM13.8667 11.2V12.2667C13.8667 13.1503 13.1503 13.8667 12.2667 13.8667H8C7.11633 13.8667 6.4 13.1503 6.4 12.2667V11.2C6.4 10.3163 7.11633 9.6 8 9.6H12.2667C13.1503 9.6 13.8667 10.3163 13.8667 11.2ZM2.13333 16.5333C2.13333 15.6497 2.84967 14.9333 3.73333 14.9333H28.2667C29.1503 14.9333 29.8667 15.6497 29.8667 16.5333V18.1333H2.13333V16.5333ZM3.2 28.8H2.13333V26.6667H3.2V28.8ZM29.8667 28.8H28.8V26.6667H29.8667V28.8ZM30.9333 25.6H1.06667V19.2H30.9333V25.6Z" fill="#fa7c33"/>
<path d="M4.79997 23.4667H2.66663C2.3721 23.4667 2.1333 23.7055 2.1333 24C2.1333 24.2945 2.3721 24.5333 2.66663 24.5333H4.79997C5.0945 24.5333 5.3333 24.2945 5.3333 24C5.3333 23.7055 5.0945 23.4667 4.79997 23.4667Z" fill="#fa7c33"/>
<path d="M29.3334 23.4667H6.93336C6.63882 23.4667 6.40002 23.7055 6.40002 24C6.40002 24.2945 6.63882 24.5333 6.93336 24.5333H29.3334C29.6279 24.5333 29.8667 24.2945 29.8667 24C29.8667 23.7055 29.6279 23.4667 29.3334 23.4667Z" fill="#fa7c33"/>
</svg>
