<svg width="32" height="32" viewBox="0 0 32 32" fill="none" xmlns="http://www.w3.org/2000/svg">
<path d="M5.9615 23.1668C6.05306 23.2583 6.17306 23.3041 6.293 23.3041C6.41294 23.3041 6.53294 23.2584 6.6245 23.1668L6.94012 22.8512L7.25575 23.1668C7.34731 23.2583 7.46731 23.3041 7.58725 23.3041C7.70719 23.3041 7.82719 23.2584 7.91875 23.1668C8.10181 22.9837 8.10181 22.6869 7.91875 22.5039L7.60306 22.1882L7.91875 21.8726C8.10181 21.6895 8.10181 21.3927 7.91875 21.2097C7.73562 21.0266 7.43887 21.0266 7.25581 21.2097L6.94019 21.5253L6.62456 21.2097C6.44144 21.0266 6.14469 21.0266 5.96162 21.2097C5.77856 21.3927 5.77856 21.6896 5.96162 21.8726L6.27731 22.1882L5.96162 22.5039C5.77844 22.6869 5.77844 22.9837 5.9615 23.1668Z" fill="#fa7c33"/>
<path d="M15.0213 15.3904C15.1129 15.482 15.2328 15.5278 15.3528 15.5278C15.4728 15.5278 15.5928 15.482 15.6843 15.3904L16 15.0748L16.3157 15.3904C16.4073 15.4819 16.5273 15.5278 16.6472 15.5278C16.7671 15.5278 16.8871 15.482 16.9787 15.3904C17.1618 15.2074 17.1618 14.9106 16.9787 14.7276L16.663 14.4119L16.9787 14.0962C17.1618 13.9131 17.1618 13.6164 16.9787 13.4333C16.7956 13.2503 16.4989 13.2502 16.3158 13.4333L16 13.7489L15.6843 13.4332C15.5011 13.2501 15.2044 13.2501 15.0213 13.4332C14.8383 13.6163 14.8383 13.9131 15.0213 14.0961L15.337 14.4118L15.0213 14.7274C14.8383 14.9106 14.8383 15.2074 15.0213 15.3904Z" fill="#fa7c33"/>
<path d="M30.3179 0H22.3096C21.9221 0 21.5437 0.135188 21.2445 0.380625C21.1913 0.424188 21.1226 0.424313 21.0693 0.380625C20.77 0.135188 20.3917 0 20.0042 0H11.9959C11.6083 0 11.2301 0.135188 10.9307 0.380625C10.8776 0.424188 10.8089 0.424313 10.7556 0.380625C10.4563 0.135188 10.0779 0 9.69044 0H1.68212C0.754562 0 0 0.754625 0 1.68212V5.38294C0 5.64181 0.209812 5.85169 0.46875 5.85169C0.727687 5.85169 0.9375 5.64181 0.9375 5.38294V1.68212C0.9375 1.27156 1.27156 0.9375 1.68212 0.9375H9.6905C9.86431 0.9375 10.0271 0.995562 10.1611 1.1055C10.5627 1.43488 11.1236 1.43488 11.5253 1.1055C11.6593 0.995625 11.8221 0.9375 11.9959 0.9375H20.0042C20.178 0.9375 20.3407 0.995562 20.4748 1.1055C20.8764 1.43488 21.4373 1.43488 21.8389 1.1055C21.9729 0.995625 22.1357 0.9375 22.3096 0.9375H30.3179C30.7284 0.9375 31.0625 1.27156 31.0624 1.68212V27.6169C30.8378 27.5056 30.5851 27.4426 30.3178 27.4426H25.98C25.7211 27.4426 25.5112 27.6525 25.5112 27.9114C25.5112 28.1702 25.7211 28.3801 25.98 28.3801H30.3178C30.7284 28.3801 31.0624 28.7142 31.0624 29.1248V29.7109V30.3179C31.0624 30.7284 30.7284 31.0625 30.3178 31.0625H22.3095C22.1357 31.0625 21.9729 31.0044 21.8389 30.8945C21.4373 30.5651 20.8764 30.5651 20.4748 30.8945C20.3407 31.0044 20.1779 31.0625 20.0041 31.0625H11.9958C11.822 31.0625 11.6593 31.0044 11.5252 30.8945C11.1236 30.5651 10.5627 30.5651 10.1611 30.8945C10.0271 31.0044 9.86425 31.0625 9.69044 31.0625H1.68212C1.27156 31.0625 0.9375 30.7284 0.9375 30.3179V29.7109V29.1248C0.9375 28.7142 1.27156 28.3801 1.68212 28.3801H9.6905C9.86431 28.3801 10.0271 28.4382 10.1611 28.5481C10.5627 28.8775 11.1236 28.8775 11.5253 28.5481C11.6593 28.4382 11.8221 28.3801 11.9959 28.3801H20.0042C20.1781 28.3801 20.3408 28.4382 20.4749 28.5481C20.8765 28.8775 21.4374 28.8775 21.839 28.5481C21.973 28.4382 22.1358 28.3801 22.3096 28.3801H24.1297C24.3886 28.3801 24.5984 28.1702 24.5984 27.9114C24.5984 27.6525 24.3886 27.4426 24.1297 27.4426H22.3096C21.9221 27.4426 21.5438 27.5778 21.2445 27.8232C21.1913 27.8668 21.1226 27.8669 21.0693 27.8232C20.77 27.5778 20.3917 27.4426 20.0042 27.4426H11.9959C11.6084 27.4426 11.2301 27.5778 10.9307 27.8232C10.8776 27.8668 10.8089 27.8669 10.7556 27.8232C10.4563 27.5778 10.0779 27.4426 9.69044 27.4426H1.68212C1.41488 27.4426 1.16212 27.5056 0.9375 27.6169V7.17269C0.9375 6.91381 0.727687 6.70394 0.46875 6.70394C0.209812 6.70394 0 6.91381 0 7.17269V29.1248V29.7109V30.3179C0 31.2454 0.754562 32 1.68212 32H9.69044C10.0779 32 10.4563 31.8648 10.7556 31.6194C10.8088 31.5758 10.8774 31.5757 10.9307 31.6194C11.2301 31.8648 11.6084 32 11.9959 32H20.0041C20.3916 32 20.7699 31.8648 21.0693 31.6194C21.1225 31.5758 21.1911 31.5757 21.2444 31.6194C21.5438 31.8648 21.9221 32 22.3096 32H30.3179C31.2454 32 32 31.2454 32 30.3179V29.7109V29.1248V1.68212C32 0.754625 31.2454 0 30.3179 0Z" fill="#fa7c33"/>
<path d="M5.9615 7.63556C6.05306 7.72706 6.17306 7.77287 6.293 7.77287C6.41294 7.77287 6.53294 7.72712 6.6245 7.63556L6.94012 7.31993L7.25575 7.63556C7.34731 7.72706 7.46731 7.77287 7.58725 7.77287C7.70719 7.77287 7.82719 7.72712 7.91875 7.63556C8.10181 7.45249 8.10181 7.15568 7.91875 6.97268L7.60306 6.657L7.91875 6.34131C8.10181 6.15825 8.10181 5.86143 7.91875 5.67843C7.73562 5.49537 7.43887 5.49537 7.25581 5.67843L6.94019 5.99406L6.62456 5.67843C6.44144 5.49537 6.14469 5.49537 5.96162 5.67843C5.77856 5.8615 5.77856 6.15831 5.96162 6.34131L6.27731 6.657L5.96162 6.97268C5.77844 7.15568 5.77844 7.45249 5.9615 7.63556Z" fill="#fa7c33"/>
<path d="M5.9615 15.3904C6.05306 15.4819 6.17306 15.5277 6.293 15.5277C6.41294 15.5277 6.53294 15.482 6.6245 15.3904L6.94012 15.0748L7.25575 15.3904C7.34731 15.482 7.46725 15.5277 7.58725 15.5277C7.70719 15.5277 7.82719 15.482 7.91875 15.3904C8.10181 15.2074 8.10181 14.9106 7.91875 14.7276L7.60306 14.4119L7.91875 14.0962C8.10181 13.9131 8.10181 13.6163 7.91875 13.4333C7.73562 13.2502 7.43887 13.2502 7.25581 13.4333L6.94019 13.7489L6.62456 13.4333C6.4415 13.2502 6.14475 13.2502 5.96162 13.4333C5.77856 13.6164 5.77856 13.9132 5.96162 14.0962L6.27731 14.4119L5.96162 14.7276C5.77844 14.9106 5.77844 15.2074 5.9615 15.3904Z" fill="#fa7c33"/>
<path d="M15.0213 7.63557C15.1129 7.72714 15.2328 7.77289 15.3528 7.77289C15.4728 7.77289 15.5928 7.72714 15.6843 7.63557L16 7.31982L16.3158 7.63557C16.4073 7.72714 16.5273 7.77289 16.6472 7.77289C16.7671 7.77289 16.8871 7.72714 16.9787 7.63557C17.1618 7.45251 17.1618 7.1557 16.9786 6.9727L16.663 6.65701L16.9786 6.34132C17.1618 6.15826 17.1618 5.86151 16.9787 5.67844C16.7956 5.49538 16.4988 5.49538 16.3158 5.67844L16 5.99413L15.6842 5.67838C15.5012 5.49526 15.2044 5.49532 15.0213 5.67838C14.8383 5.86144 14.8383 6.15826 15.0214 6.34126L15.3371 6.65695L15.0214 6.97263C14.8383 7.1557 14.8383 7.45251 15.0213 7.63557Z" fill="#fa7c33"/>
<path d="M24.0814 15.3904C24.1729 15.4819 24.2929 15.5277 24.4129 15.5277C24.5328 15.5277 24.6528 15.482 24.7444 15.3904L25.06 15.0748L25.3756 15.3904C25.4672 15.482 25.5871 15.5277 25.7071 15.5277C25.8271 15.5277 25.9471 15.482 26.0386 15.3904C26.2217 15.2074 26.2217 14.9106 26.0386 14.7276L25.7229 14.4119L26.0386 14.0962C26.2217 13.9131 26.2217 13.6163 26.0386 13.4333C25.8555 13.2502 25.5587 13.2502 25.3757 13.4333L25.0601 13.7489L24.7444 13.4333C24.5613 13.2502 24.2646 13.2502 24.0815 13.4333C23.8984 13.6164 23.8984 13.9132 24.0815 14.0962L24.3972 14.4119L24.0815 14.7276C23.8983 14.9106 23.8983 15.2074 24.0814 15.3904Z" fill="#fa7c33"/>
<path d="M24.0814 23.1668C24.1729 23.2583 24.2929 23.3041 24.4129 23.3041C24.5328 23.3041 24.6528 23.2584 24.7444 23.1668L25.06 22.8512L25.3756 23.1668C25.4672 23.2583 25.5872 23.3041 25.7071 23.3041C25.8271 23.3041 25.9471 23.2584 26.0386 23.1668C26.2217 22.9837 26.2217 22.6869 26.0386 22.5039L25.7229 22.1882L26.0386 21.8726C26.2217 21.6895 26.2217 21.3927 26.0386 21.2097C25.8555 21.0266 25.5587 21.0266 25.3757 21.2097L25.0601 21.5253L24.7444 21.2097C24.5613 21.0266 24.2646 21.0266 24.0815 21.2097C23.8984 21.3927 23.8984 21.6896 24.0815 21.8726L24.3972 22.1882L24.0815 22.5039C23.8983 22.6869 23.8983 22.9837 24.0814 23.1668Z" fill="#fa7c33"/>
<path d="M15.0213 23.1668C15.1129 23.2583 15.2328 23.3041 15.3528 23.3041C15.4728 23.3041 15.5928 23.2583 15.6843 23.1668L16 22.851L16.3158 23.1668C16.4073 23.2583 16.5273 23.3041 16.6472 23.3041C16.7671 23.3041 16.8871 23.2583 16.9787 23.1668C17.1618 22.9837 17.1618 22.6869 16.9786 22.5039L16.663 22.1882L16.9786 21.8725C17.1616 21.6895 17.1616 21.3928 16.9786 21.2096C16.7955 21.0266 16.4987 21.0265 16.3157 21.2096L16 21.5254L15.6842 21.2096C15.5012 21.0265 15.2044 21.0266 15.0213 21.2096C14.8383 21.3927 14.8383 21.6895 15.0214 21.8725L15.3371 22.1882L15.0214 22.5039C14.8383 22.687 14.8383 22.9837 15.0213 23.1668Z" fill="#fa7c33"/>
<path d="M24.0814 7.63556C24.1729 7.72706 24.2929 7.77287 24.4129 7.77287C24.5328 7.77287 24.6528 7.72712 24.7444 7.63556L25.06 7.31993L25.3756 7.63556C25.4672 7.72706 25.5872 7.77287 25.7071 7.77287C25.8271 7.77287 25.9471 7.72712 26.0386 7.63556C26.2217 7.45249 26.2217 7.15568 26.0386 6.97268L25.7229 6.657L26.0386 6.34131C26.2217 6.15825 26.2217 5.86143 26.0386 5.67843C25.8555 5.49537 25.5587 5.49537 25.3757 5.67843L25.0601 5.99406L24.7444 5.67843C24.5613 5.49537 24.2646 5.49537 24.0815 5.67843C23.8984 5.8615 23.8984 6.15831 24.0815 6.34131L24.3972 6.657L24.0815 6.97268C23.8983 7.15568 23.8983 7.45249 24.0814 7.63556Z" fill="#fa7c33"/>
</svg>
