<?xml version="1.0" encoding="UTF-8"?>
<svg id="_Слой_1" data-name="Слой 1" xmlns="http://www.w3.org/2000/svg" viewBox="0 0 375 200">
  <g>
    <circle cx="187.5" cy="100" r=".5" fill="none" opacity=".5" stroke="#f7931e" stroke-miterlimit="10" stroke-width=".5"/>
    <circle cx="187.5" cy="100" r="1.62" fill="none" opacity=".5" stroke="#f7931e" stroke-miterlimit="10" stroke-width=".5"/>
    <circle cx="187.5" cy="100" r="2.73" fill="none" opacity=".5" stroke="#f7931e" stroke-miterlimit="10" stroke-width=".5"/>
    <circle cx="187.5" cy="100" r="3.85" fill="none" opacity=".49" stroke="#f7931e" stroke-miterlimit="10" stroke-width=".5"/>
    <circle cx="187.5" cy="100" r="4.97" fill="none" opacity=".49" stroke="#f7931e" stroke-miterlimit="10" stroke-width=".5"/>
    <circle cx="187.5" cy="100" r="6.08" fill="none" opacity=".49" stroke="#f7931e" stroke-miterlimit="10" stroke-width=".5"/>
    <circle cx="187.5" cy="100" r="7.2" fill="none" opacity=".49" stroke="#f7931e" stroke-miterlimit="10" stroke-width=".5"/>
    <circle cx="187.5" cy="100" r="8.32" fill="none" opacity=".49" stroke="#f7931e" stroke-miterlimit="10" stroke-width=".5"/>
    <circle cx="187.5" cy="100" r="9.44" fill="none" opacity=".48" stroke="#f7931e" stroke-miterlimit="10" stroke-width=".5"/>
    <circle cx="187.5" cy="100" r="10.55" fill="none" opacity=".48" stroke="#f7931e" stroke-miterlimit="10" stroke-width=".5"/>
    <circle cx="187.5" cy="100" r="11.67" fill="none" opacity=".48" stroke="#f7931e" stroke-miterlimit="10" stroke-width=".5"/>
    <circle cx="187.5" cy="100" r="12.79" fill="none" opacity=".48" stroke="#f7931e" stroke-miterlimit="10" stroke-width=".5"/>
    <circle cx="187.5" cy="100" r="13.9" fill="none" opacity=".48" stroke="#f7931e" stroke-miterlimit="10" stroke-width=".5"/>
    <circle cx="187.5" cy="100" r="15.02" fill="none" opacity=".47" stroke="#f7931e" stroke-miterlimit="10" stroke-width=".5"/>
    <circle cx="187.5" cy="100" r="16.14" fill="none" opacity=".47" stroke="#f7931e" stroke-miterlimit="10" stroke-width=".5"/>
    <circle cx="187.5" cy="100" r="17.25" fill="none" opacity=".47" stroke="#f7931e" stroke-miterlimit="10" stroke-width=".5"/>
    <circle cx="187.5" cy="100" r="18.37" fill="none" opacity=".47" stroke="#f7931e" stroke-miterlimit="10" stroke-width=".5"/>
    <circle cx="187.5" cy="100" r="19.49" fill="none" opacity=".47" stroke="#f7931e" stroke-miterlimit="10" stroke-width=".5"/>
    <circle cx="187.5" cy="100" r="20.6" fill="none" opacity=".46" stroke="#f7931e" stroke-miterlimit="10" stroke-width=".5"/>
    <circle cx="187.5" cy="100" r="21.72" fill="none" opacity=".46" stroke="#f7931e" stroke-miterlimit="10" stroke-width=".5"/>
    <circle cx="187.5" cy="100" r="22.84" fill="none" opacity=".46" stroke="#f7931e" stroke-miterlimit="10" stroke-width=".5"/>
    <circle cx="187.5" cy="100" r="23.96" fill="none" opacity=".46" stroke="#f7931e" stroke-miterlimit="10" stroke-width=".5"/>
    <circle cx="187.5" cy="100" r="25.07" fill="none" opacity=".46" stroke="#f7931e" stroke-miterlimit="10" stroke-width=".5"/>
    <circle cx="187.5" cy="100" r="26.19" fill="none" opacity=".45" stroke="#f7931e" stroke-miterlimit="10" stroke-width=".5"/>
    <circle cx="187.5" cy="100" r="27.31" fill="none" opacity=".45" stroke="#f7931e" stroke-miterlimit="10" stroke-width=".5"/>
    <circle cx="187.5" cy="100" r="28.42" fill="none" opacity=".45" stroke="#f7931e" stroke-miterlimit="10" stroke-width=".5"/>
    <circle cx="187.5" cy="100" r="29.54" fill="none" opacity=".45" stroke="#f7931e" stroke-miterlimit="10" stroke-width=".5"/>
    <circle cx="187.5" cy="100" r="30.66" fill="none" opacity=".45" stroke="#f7931e" stroke-miterlimit="10" stroke-width=".5"/>
    <circle cx="187.5" cy="100" r="31.77" fill="none" opacity=".44" stroke="#f7931e" stroke-miterlimit="10" stroke-width=".5"/>
    <circle cx="187.5" cy="100" r="32.89" fill="none" opacity=".44" stroke="#f7931e" stroke-miterlimit="10" stroke-width=".5"/>
    <circle cx="187.5" cy="100" r="34.01" fill="none" opacity=".44" stroke="#f7931e" stroke-miterlimit="10" stroke-width=".5"/>
    <circle cx="187.5" cy="100" r="35.12" fill="none" opacity=".44" stroke="#f7931e" stroke-miterlimit="10" stroke-width=".5"/>
    <circle cx="187.5" cy="100" r="36.24" fill="none" opacity=".44" stroke="#f7931e" stroke-miterlimit="10" stroke-width=".5"/>
    <circle cx="187.5" cy="100" r="37.36" fill="none" opacity=".43" stroke="#f7931e" stroke-miterlimit="10" stroke-width=".5"/>
    <circle cx="187.5" cy="100" r="38.48" fill="none" opacity=".43" stroke="#f7931e" stroke-miterlimit="10" stroke-width=".5"/>
    <circle cx="187.5" cy="100" r="39.59" fill="none" opacity=".43" stroke="#f7931e" stroke-miterlimit="10" stroke-width=".5"/>
    <circle cx="187.5" cy="100" r="40.71" fill="none" opacity=".43" stroke="#f7931e" stroke-miterlimit="10" stroke-width=".5"/>
    <circle cx="187.5" cy="100" r="41.83" fill="none" opacity=".43" stroke="#f7931e" stroke-miterlimit="10" stroke-width=".5"/>
    <circle cx="187.5" cy="100" r="42.94" fill="none" opacity=".42" stroke="#f7931e" stroke-miterlimit="10" stroke-width=".5"/>
    <circle cx="187.5" cy="100" r="44.06" fill="none" opacity=".42" stroke="#f7931e" stroke-miterlimit="10" stroke-width=".5"/>
    <circle cx="187.5" cy="100" r="45.18" fill="none" opacity=".42" stroke="#f7931e" stroke-miterlimit="10" stroke-width=".5"/>
    <circle cx="187.5" cy="100" r="46.29" fill="none" opacity=".42" stroke="#f7931e" stroke-miterlimit="10" stroke-width=".5"/>
    <circle cx="187.5" cy="100" r="47.41" fill="none" opacity=".42" stroke="#f7931e" stroke-miterlimit="10" stroke-width=".5"/>
    <circle cx="187.5" cy="100" r="48.53" fill="none" opacity=".41" stroke="#f7931e" stroke-miterlimit="10" stroke-width=".5"/>
    <circle cx="187.5" cy="100" r="49.64" fill="none" opacity=".41" stroke="#f7931e" stroke-miterlimit="10" stroke-width=".5"/>
    <circle cx="187.5" cy="100" r="50.76" fill="none" opacity=".41" stroke="#f7931e" stroke-miterlimit="10" stroke-width=".5"/>
    <circle cx="187.5" cy="100" r="51.88" fill="none" opacity=".41" stroke="#f7931e" stroke-miterlimit="10" stroke-width=".5"/>
    <circle cx="187.5" cy="100" r="53" fill="none" opacity=".41" stroke="#f7931e" stroke-miterlimit="10" stroke-width=".5"/>
    <circle cx="187.5" cy="100" r="54.11" fill="none" opacity=".4" stroke="#f7931e" stroke-miterlimit="10" stroke-width=".5"/>
    <circle cx="187.5" cy="100" r="55.23" fill="none" opacity=".4" stroke="#f7931e" stroke-miterlimit="10" stroke-width=".5"/>
    <circle cx="187.5" cy="100" r="56.35" fill="none" opacity=".4" stroke="#f7931e" stroke-miterlimit="10" stroke-width=".5"/>
    <circle cx="187.5" cy="100" r="57.46" fill="none" opacity=".4" stroke="#f7931e" stroke-miterlimit="10" stroke-width=".5"/>
    <circle cx="187.5" cy="100" r="58.58" fill="none" opacity=".4" stroke="#f7931e" stroke-miterlimit="10" stroke-width=".5"/>
    <circle cx="187.5" cy="100" r="59.7" fill="none" opacity=".39" stroke="#f7931e" stroke-miterlimit="10" stroke-width=".5"/>
    <circle cx="187.5" cy="100" r="60.81" fill="none" opacity=".39" stroke="#f7931e" stroke-miterlimit="10" stroke-width=".5"/>
    <circle cx="187.5" cy="100" r="61.93" fill="none" opacity=".39" stroke="#f7931e" stroke-miterlimit="10" stroke-width=".5"/>
    <circle cx="187.5" cy="100" r="63.05" fill="none" opacity=".39" stroke="#f7931e" stroke-miterlimit="10" stroke-width=".5"/>
    <circle cx="187.5" cy="100" r="64.16" fill="none" opacity=".39" stroke="#f7931e" stroke-miterlimit="10" stroke-width=".5"/>
    <circle cx="187.5" cy="100" r="65.28" fill="none" opacity=".38" stroke="#f7931e" stroke-miterlimit="10" stroke-width=".5"/>
    <circle cx="187.5" cy="100" r="66.4" fill="none" opacity=".38" stroke="#f7931e" stroke-miterlimit="10" stroke-width=".5"/>
    <circle cx="187.5" cy="100" r="67.51" fill="none" opacity=".38" stroke="#f7931e" stroke-miterlimit="10" stroke-width=".5"/>
    <circle cx="187.5" cy="100" r="68.63" fill="none" opacity=".38" stroke="#f7931e" stroke-miterlimit="10" stroke-width=".5"/>
    <circle cx="187.5" cy="100" r="69.75" fill="none" opacity=".38" stroke="#f7931e" stroke-miterlimit="10" stroke-width=".5"/>
    <circle cx="187.5" cy="100" r="70.87" fill="none" opacity=".37" stroke="#f7931e" stroke-miterlimit="10" stroke-width=".5"/>
    <circle cx="187.5" cy="100" r="71.98" fill="none" opacity=".37" stroke="#f7931e" stroke-miterlimit="10" stroke-width=".5"/>
    <circle cx="187.5" cy="100" r="73.1" fill="none" opacity=".37" stroke="#f7931e" stroke-miterlimit="10" stroke-width=".5"/>
    <circle cx="187.5" cy="100" r="74.22" fill="none" opacity=".37" stroke="#f7931e" stroke-miterlimit="10" stroke-width=".5"/>
    <circle cx="187.5" cy="100" r="75.33" fill="none" opacity=".37" stroke="#f7931e" stroke-miterlimit="10" stroke-width=".5"/>
    <circle cx="187.5" cy="100" r="76.45" fill="none" opacity=".36" stroke="#f7931e" stroke-miterlimit="10" stroke-width=".5"/>
    <circle cx="187.5" cy="100" r="77.57" fill="none" opacity=".36" stroke="#f7931e" stroke-miterlimit="10" stroke-width=".5"/>
    <circle cx="187.5" cy="100" r="78.68" fill="none" opacity=".36" stroke="#f7931e" stroke-miterlimit="10" stroke-width=".5"/>
    <circle cx="187.5" cy="100" r="79.8" fill="none" opacity=".36" stroke="#f7931e" stroke-miterlimit="10" stroke-width=".5"/>
    <circle cx="187.5" cy="100" r="80.92" fill="none" opacity=".36" stroke="#f7931e" stroke-miterlimit="10" stroke-width=".5"/>
    <circle cx="187.5" cy="100" r="82.03" fill="none" opacity=".35" stroke="#f7931e" stroke-miterlimit="10" stroke-width=".5"/>
    <circle cx="187.5" cy="100" r="83.15" fill="none" opacity=".35" stroke="#f7931e" stroke-miterlimit="10" stroke-width=".5"/>
    <circle cx="187.5" cy="100" r="84.27" fill="none" opacity=".35" stroke="#f7931e" stroke-miterlimit="10" stroke-width=".5"/>
    <circle cx="187.5" cy="100" r="85.39" fill="none" opacity=".35" stroke="#f7931e" stroke-miterlimit="10" stroke-width=".5"/>
    <circle cx="187.5" cy="100" r="86.5" fill="none" opacity=".35" stroke="#f7931e" stroke-miterlimit="10" stroke-width=".5"/>
    <circle cx="187.5" cy="100" r="87.62" fill="none" opacity=".34" stroke="#f7931e" stroke-miterlimit="10" stroke-width=".5"/>
    <circle cx="187.5" cy="100" r="88.74" fill="none" opacity=".34" stroke="#f7931e" stroke-miterlimit="10" stroke-width=".5"/>
    <circle cx="187.5" cy="100" r="89.85" fill="none" opacity=".34" stroke="#f7931e" stroke-miterlimit="10" stroke-width=".5"/>
    <circle cx="187.5" cy="100" r="90.97" fill="none" opacity=".34" stroke="#f7931e" stroke-miterlimit="10" stroke-width=".5"/>
    <circle cx="187.5" cy="100" r="92.09" fill="none" opacity=".34" stroke="#f7931e" stroke-miterlimit="10" stroke-width=".5"/>
    <circle cx="187.5" cy="100" r="93.2" fill="none" opacity=".33" stroke="#f7931e" stroke-miterlimit="10" stroke-width=".5"/>
    <circle cx="187.5" cy="100" r="94.32" fill="none" opacity=".33" stroke="#f7931e" stroke-miterlimit="10" stroke-width=".5"/>
    <circle cx="187.5" cy="100" r="95.44" fill="none" opacity=".33" stroke="#f7931e" stroke-miterlimit="10" stroke-width=".5"/>
    <circle cx="187.5" cy="100" r="96.55" fill="none" opacity=".33" stroke="#f7931e" stroke-miterlimit="10" stroke-width=".5"/>
    <circle cx="187.5" cy="100" r="97.67" fill="none" opacity=".33" stroke="#f7931e" stroke-miterlimit="10" stroke-width=".5"/>
    <circle cx="187.5" cy="100" r="98.79" fill="none" opacity=".32" stroke="#f7931e" stroke-miterlimit="10" stroke-width=".5"/>
    <circle cx="187.5" cy="100" r="99.91" fill="none" opacity=".32" stroke="#f7931e" stroke-miterlimit="10" stroke-width=".5"/>
    <circle cx="187.5" cy="100" r="101.02" fill="none" opacity=".32" stroke="#f7931e" stroke-miterlimit="10" stroke-width=".5"/>
    <circle cx="187.5" cy="100" r="102.14" fill="none" opacity=".32" stroke="#f7931e" stroke-miterlimit="10" stroke-width=".5"/>
    <circle cx="187.5" cy="100" r="103.26" fill="none" opacity=".32" stroke="#f7931e" stroke-miterlimit="10" stroke-width=".5"/>
    <circle cx="187.5" cy="100" r="104.37" fill="none" opacity=".31" stroke="#f7931e" stroke-miterlimit="10" stroke-width=".5"/>
    <circle cx="187.5" cy="100" r="105.49" fill="none" opacity=".31" stroke="#f7931e" stroke-miterlimit="10" stroke-width=".5"/>
    <circle cx="187.5" cy="100" r="106.61" fill="none" opacity=".31" stroke="#f7931e" stroke-miterlimit="10" stroke-width=".5"/>
    <circle cx="187.5" cy="100" r="107.72" fill="none" opacity=".31" stroke="#f7931e" stroke-miterlimit="10" stroke-width=".5"/>
    <circle cx="187.5" cy="100" r="108.84" fill="none" opacity=".31" stroke="#f7931e" stroke-miterlimit="10" stroke-width=".5"/>
    <circle cx="187.5" cy="100" r="109.96" fill="none" opacity=".3" stroke="#f7931e" stroke-miterlimit="10" stroke-width=".5"/>
    <circle cx="187.5" cy="100" r="111.07" fill="none" opacity=".3" stroke="#f7931e" stroke-miterlimit="10" stroke-width=".5"/>
    <circle cx="187.5" cy="100" r="112.19" fill="none" opacity=".3" stroke="#f7931e" stroke-miterlimit="10" stroke-width=".5"/>
    <circle cx="187.5" cy="100" r="113.31" fill="none" opacity=".3" stroke="#f7931e" stroke-miterlimit="10" stroke-width=".5"/>
    <circle cx="187.5" cy="100" r="114.43" fill="none" opacity=".3" stroke="#f7931e" stroke-miterlimit="10" stroke-width=".5"/>
    <circle cx="187.5" cy="100" r="115.54" fill="none" opacity=".3" stroke="#f7931e" stroke-miterlimit="10" stroke-width=".5"/>
    <circle cx="187.5" cy="100" r="116.66" fill="none" opacity=".29" stroke="#f7931e" stroke-miterlimit="10" stroke-width=".5"/>
    <circle cx="187.5" cy="100" r="117.78" fill="none" opacity=".29" stroke="#f7931e" stroke-miterlimit="10" stroke-width=".5"/>
    <circle cx="187.5" cy="100" r="118.89" fill="none" opacity=".29" stroke="#f7931e" stroke-miterlimit="10" stroke-width=".5"/>
    <circle cx="187.5" cy="100" r="120.01" fill="none" opacity=".29" stroke="#f7931e" stroke-miterlimit="10" stroke-width=".5"/>
    <circle cx="187.5" cy="100" r="121.13" fill="none" opacity=".29" stroke="#f7931e" stroke-miterlimit="10" stroke-width=".5"/>
    <circle cx="187.5" cy="100" r="122.24" fill="none" opacity=".28" stroke="#f7931e" stroke-miterlimit="10" stroke-width=".5"/>
    <circle cx="187.5" cy="100" r="123.36" fill="none" opacity=".28" stroke="#f7931e" stroke-miterlimit="10" stroke-width=".5"/>
    <circle cx="187.5" cy="100" r="124.48" fill="none" opacity=".28" stroke="#f7931e" stroke-miterlimit="10" stroke-width=".5"/>
    <circle cx="187.5" cy="100" r="125.59" fill="none" opacity=".28" stroke="#f7931e" stroke-miterlimit="10" stroke-width=".5"/>
    <circle cx="187.5" cy="100" r="126.71" fill="none" opacity=".28" stroke="#f7931e" stroke-miterlimit="10" stroke-width=".5"/>
    <circle cx="187.5" cy="100" r="127.83" fill="none" opacity=".27" stroke="#f7931e" stroke-miterlimit="10" stroke-width=".5"/>
    <circle cx="187.5" cy="100" r="128.95" fill="none" opacity=".27" stroke="#f7931e" stroke-miterlimit="10" stroke-width=".5"/>
    <circle cx="187.5" cy="100" r="130.06" fill="none" opacity=".27" stroke="#f7931e" stroke-miterlimit="10" stroke-width=".5"/>
    <circle cx="187.5" cy="100" r="131.18" fill="none" opacity=".27" stroke="#f7931e" stroke-miterlimit="10" stroke-width=".5"/>
    <circle cx="187.5" cy="100" r="132.3" fill="none" opacity=".27" stroke="#f7931e" stroke-miterlimit="10" stroke-width=".5"/>
    <circle cx="187.5" cy="100" r="133.41" fill="none" opacity=".26" stroke="#f7931e" stroke-miterlimit="10" stroke-width=".5"/>
    <circle cx="187.5" cy="100" r="134.53" fill="none" opacity=".26" stroke="#f7931e" stroke-miterlimit="10" stroke-width=".5"/>
    <circle cx="187.5" cy="100" r="135.65" fill="none" opacity=".26" stroke="#f7931e" stroke-miterlimit="10" stroke-width=".5"/>
    <circle cx="187.5" cy="100" r="136.76" fill="none" opacity=".26" stroke="#f7931e" stroke-miterlimit="10" stroke-width=".5"/>
    <circle cx="187.5" cy="100" r="137.88" fill="none" opacity=".26" stroke="#f7931e" stroke-miterlimit="10" stroke-width=".5"/>
    <circle cx="187.5" cy="100" r="139" fill="none" opacity=".25" stroke="#f7931e" stroke-miterlimit="10" stroke-width=".5"/>
    <circle cx="187.5" cy="100" r="140.11" fill="none" opacity=".25" stroke="#f7931e" stroke-miterlimit="10" stroke-width=".5"/>
    <circle cx="187.5" cy="100" r="141.23" fill="none" opacity=".25" stroke="#f7931e" stroke-miterlimit="10" stroke-width=".5"/>
    <circle cx="187.5" cy="100" r="142.35" fill="none" opacity=".25" stroke="#f7931e" stroke-miterlimit="10" stroke-width=".5"/>
    <circle cx="187.5" cy="100" r="143.47" fill="none" opacity=".25" stroke="#f7931e" stroke-miterlimit="10" stroke-width=".5"/>
    <circle cx="187.5" cy="100" r="144.58" fill="none" opacity=".24" stroke="#f7931e" stroke-miterlimit="10" stroke-width=".5"/>
    <circle cx="187.5" cy="100" r="145.7" fill="none" opacity=".24" stroke="#f7931e" stroke-miterlimit="10" stroke-width=".5"/>
    <circle cx="187.5" cy="100" r="146.82" fill="none" opacity=".24" stroke="#f7931e" stroke-miterlimit="10" stroke-width=".5"/>
    <circle cx="187.5" cy="100" r="147.93" fill="none" opacity=".24" stroke="#f7931e" stroke-miterlimit="10" stroke-width=".5"/>
    <circle cx="187.5" cy="100" r="149.05" fill="none" opacity=".24" stroke="#f7931e" stroke-miterlimit="10" stroke-width=".5"/>
    <circle cx="187.5" cy="100" r="150.17" fill="none" opacity=".23" stroke="#f7931e" stroke-miterlimit="10" stroke-width=".5"/>
    <circle cx="187.5" cy="100" r="151.28" fill="none" opacity=".23" stroke="#f7931e" stroke-miterlimit="10" stroke-width=".5"/>
    <circle cx="187.5" cy="100" r="152.4" fill="none" opacity=".23" stroke="#f7931e" stroke-miterlimit="10" stroke-width=".5"/>
    <circle cx="187.5" cy="100" r="153.52" fill="none" opacity=".23" stroke="#f7931e" stroke-miterlimit="10" stroke-width=".5"/>
    <circle cx="187.5" cy="100" r="154.63" fill="none" opacity=".23" stroke="#f7931e" stroke-miterlimit="10" stroke-width=".5"/>
    <circle cx="187.5" cy="100" r="155.75" fill="none" opacity=".22" stroke="#f7931e" stroke-miterlimit="10" stroke-width=".5"/>
    <circle cx="187.5" cy="100" r="156.87" fill="none" opacity=".22" stroke="#f7931e" stroke-miterlimit="10" stroke-width=".5"/>
    <circle cx="187.5" cy="100" r="157.99" fill="none" opacity=".22" stroke="#f7931e" stroke-miterlimit="10" stroke-width=".5"/>
    <circle cx="187.5" cy="100" r="159.1" fill="none" opacity=".22" stroke="#f7931e" stroke-miterlimit="10" stroke-width=".5"/>
    <circle cx="187.5" cy="100" r="160.22" fill="none" opacity=".22" stroke="#f7931e" stroke-miterlimit="10" stroke-width=".5"/>
    <circle cx="187.5" cy="100" r="161.34" fill="none" opacity=".21" stroke="#f7931e" stroke-miterlimit="10" stroke-width=".5"/>
    <circle cx="187.5" cy="100" r="162.45" fill="none" opacity=".21" stroke="#f7931e" stroke-miterlimit="10" stroke-width=".5"/>
    <circle cx="187.5" cy="100" r="163.57" fill="none" opacity=".21" stroke="#f7931e" stroke-miterlimit="10" stroke-width=".5"/>
    <circle cx="187.5" cy="100" r="164.69" fill="none" opacity=".21" stroke="#f7931e" stroke-miterlimit="10" stroke-width=".5"/>
    <circle cx="187.5" cy="100" r="165.8" fill="none" opacity=".21" stroke="#f7931e" stroke-miterlimit="10" stroke-width=".5"/>
    <circle cx="187.5" cy="100" r="166.92" fill="none" opacity=".2" stroke="#f7931e" stroke-miterlimit="10" stroke-width=".5"/>
    <circle cx="187.5" cy="100" r="168.04" fill="none" opacity=".2" stroke="#f7931e" stroke-miterlimit="10" stroke-width=".5"/>
    <circle cx="187.5" cy="100" r="169.15" fill="none" opacity=".2" stroke="#f7931e" stroke-miterlimit="10" stroke-width=".5"/>
    <circle cx="187.5" cy="100" r="170.27" fill="none" opacity=".2" stroke="#f7931e" stroke-miterlimit="10" stroke-width=".5"/>
    <circle cx="187.5" cy="100" r="171.39" fill="none" opacity=".2" stroke="#f7931e" stroke-miterlimit="10" stroke-width=".5"/>
    <circle cx="187.5" cy="100" r="172.5" fill="none" opacity=".19" stroke="#f7931e" stroke-miterlimit="10" stroke-width=".5"/>
    <circle cx="187.5" cy="100" r="173.62" fill="none" opacity=".19" stroke="#f7931e" stroke-miterlimit="10" stroke-width=".5"/>
    <circle cx="187.5" cy="100" r="174.74" fill="none" opacity=".19" stroke="#f7931e" stroke-miterlimit="10" stroke-width=".5"/>
    <circle cx="187.5" cy="100" r="175.86" fill="none" opacity=".19" stroke="#f7931e" stroke-miterlimit="10" stroke-width=".5"/>
    <circle cx="187.5" cy="100" r="176.97" fill="none" opacity=".19" stroke="#f7931e" stroke-miterlimit="10" stroke-width=".5"/>
    <circle cx="187.5" cy="100" r="178.09" fill="none" opacity=".18" stroke="#f7931e" stroke-miterlimit="10" stroke-width=".5"/>
    <circle cx="187.5" cy="100" r="179.21" fill="none" opacity=".18" stroke="#f7931e" stroke-miterlimit="10" stroke-width=".5"/>
    <circle cx="187.5" cy="100" r="180.32" fill="none" opacity=".18" stroke="#f7931e" stroke-miterlimit="10" stroke-width=".5"/>
    <circle cx="187.5" cy="100" r="181.44" fill="none" opacity=".18" stroke="#f7931e" stroke-miterlimit="10" stroke-width=".5"/>
    <circle cx="187.5" cy="100" r="182.56" fill="none" opacity=".18" stroke="#f7931e" stroke-miterlimit="10" stroke-width=".5"/>
    <circle cx="187.5" cy="100" r="183.67" fill="none" opacity=".17" stroke="#f7931e" stroke-miterlimit="10" stroke-width=".5"/>
    <circle cx="187.5" cy="100" r="184.79" fill="none" opacity=".17" stroke="#f7931e" stroke-miterlimit="10" stroke-width=".5"/>
    <circle cx="187.5" cy="100" r="185.91" fill="none" opacity=".17" stroke="#f7931e" stroke-miterlimit="10" stroke-width=".5"/>
    <circle cx="187.5" cy="100" r="187.02" fill="none" opacity=".17" stroke="#f7931e" stroke-miterlimit="10" stroke-width=".5"/>
    <circle cx="187.5" cy="100" r="188.14" fill="none" opacity=".17" stroke="#f7931e" stroke-miterlimit="10" stroke-width=".5"/>
    <circle cx="187.5" cy="100" r="189.26" fill="none" opacity=".16" stroke="#f7931e" stroke-miterlimit="10" stroke-width=".5"/>
    <circle cx="187.5" cy="100" r="190.38" fill="none" opacity=".16" stroke="#f7931e" stroke-miterlimit="10" stroke-width=".5"/>
    <circle cx="187.5" cy="100" r="191.49" fill="none" opacity=".16" stroke="#f7931e" stroke-miterlimit="10" stroke-width=".5"/>
    <circle cx="187.5" cy="100" r="192.61" fill="none" opacity=".16" stroke="#f7931e" stroke-miterlimit="10" stroke-width=".5"/>
    <circle cx="187.5" cy="100" r="193.73" fill="none" opacity=".16" stroke="#f7931e" stroke-miterlimit="10" stroke-width=".5"/>
    <circle cx="187.5" cy="100" r="194.84" fill="none" opacity=".15" stroke="#f7931e" stroke-miterlimit="10" stroke-width=".5"/>
    <circle cx="187.5" cy="100" r="195.96" fill="none" opacity=".15" stroke="#f7931e" stroke-miterlimit="10" stroke-width=".5"/>
    <circle cx="187.5" cy="100" r="197.08" fill="none" opacity=".15" stroke="#f7931e" stroke-miterlimit="10" stroke-width=".5"/>
    <circle cx="187.5" cy="100" r="198.19" fill="none" opacity=".15" stroke="#f7931e" stroke-miterlimit="10" stroke-width=".5"/>
    <circle cx="187.5" cy="100" r="199.31" fill="none" opacity=".15" stroke="#f7931e" stroke-miterlimit="10" stroke-width=".5"/>
    <circle cx="187.5" cy="100" r="200.43" fill="none" opacity=".14" stroke="#f7931e" stroke-miterlimit="10" stroke-width=".5"/>
    <circle cx="187.5" cy="100" r="201.54" fill="none" opacity=".14" stroke="#f7931e" stroke-miterlimit="10" stroke-width=".5"/>
    <circle cx="187.5" cy="100" r="202.66" fill="none" opacity=".14" stroke="#f7931e" stroke-miterlimit="10" stroke-width=".5"/>
    <circle cx="187.5" cy="100" r="203.78" fill="none" opacity=".14" stroke="#f7931e" stroke-miterlimit="10" stroke-width=".5"/>
    <circle cx="187.5" cy="100" r="204.9" fill="none" opacity=".14" stroke="#f7931e" stroke-miterlimit="10" stroke-width=".5"/>
    <circle cx="187.5" cy="100" r="206.01" fill="none" opacity=".13" stroke="#f7931e" stroke-miterlimit="10" stroke-width=".5"/>
    <circle cx="187.5" cy="100" r="207.13" fill="none" opacity=".13" stroke="#f7931e" stroke-miterlimit="10" stroke-width=".5"/>
    <circle cx="187.5" cy="100" r="208.25" fill="none" opacity=".13" stroke="#f7931e" stroke-miterlimit="10" stroke-width=".5"/>
    <circle cx="187.5" cy="100" r="209.36" fill="none" opacity=".13" stroke="#f7931e" stroke-miterlimit="10" stroke-width=".5"/>
    <circle cx="187.5" cy="100" r="210.48" fill="none" opacity=".13" stroke="#f7931e" stroke-miterlimit="10" stroke-width=".5"/>
    <circle cx="187.5" cy="100" r="211.6" fill="none" opacity=".12" stroke="#f7931e" stroke-miterlimit="10" stroke-width=".5"/>
    <circle cx="187.5" cy="100" r="212.71" fill="none" opacity=".12" stroke="#f7931e" stroke-miterlimit="10" stroke-width=".5"/>
    <circle cx="187.5" cy="100" r="213.83" fill="none" opacity=".12" stroke="#f7931e" stroke-miterlimit="10" stroke-width=".5"/>
    <circle cx="187.5" cy="100" r="214.95" fill="none" opacity=".12" stroke="#f7931e" stroke-miterlimit="10" stroke-width=".5"/>
    <circle cx="187.5" cy="100" r="216.06" fill="none" opacity=".12" stroke="#f7931e" stroke-miterlimit="10" stroke-width=".5"/>
    <circle cx="187.5" cy="100" r="217.18" fill="none" opacity=".11" stroke="#f7931e" stroke-miterlimit="10" stroke-width=".5"/>
    <circle cx="187.5" cy="100" r="218.3" fill="none" opacity=".11" stroke="#f7931e" stroke-miterlimit="10" stroke-width=".5"/>
    <circle cx="187.5" cy="100" r="219.42" fill="none" opacity=".11" stroke="#f7931e" stroke-miterlimit="10" stroke-width=".5"/>
    <circle cx="187.5" cy="100" r="220.53" fill="none" opacity=".11" stroke="#f7931e" stroke-miterlimit="10" stroke-width=".5"/>
    <circle cx="187.5" cy="100" r="221.65" fill="none" opacity=".11" stroke="#f7931e" stroke-miterlimit="10" stroke-width=".5"/>
    <circle cx="187.5" cy="100" r="222.77" fill="none" opacity=".1" stroke="#f7931e" stroke-miterlimit="10" stroke-width=".5"/>
    <circle cx="187.5" cy="100" r="223.88" fill="none" opacity=".1" stroke="#f7931e" stroke-miterlimit="10" stroke-width=".5"/>
    <circle cx="187.5" cy="100" r="225" fill="none" opacity=".1" stroke="#f7931e" stroke-miterlimit="10" stroke-width=".5"/>
  </g>
  <g opacity=".2">
    <rect x="62.5" y="63.77" width="250" height="27.78" fill="#763c11"/>
    <rect x="62.5" y="122.29" width="250" height="27.78" fill="#763c11"/>
    <rect x="86.57" y="50" width="32.41" height="115.74" fill="#763c11"/>
    <rect x="143.06" y="50" width="32.41" height="115.74" fill="#763c11"/>
    <rect x="199.54" y="50" width="32.41" height="115.74" fill="#763c11"/>
    <rect x="256.02" y="50" width="32.41" height="115.74" fill="#763c11"/>
    <path d="m118.65,50h-32.08l16.2-15.74,16.2,15.74h-.33Z" fill="#763c11"/>
    <path d="m175.14,50h-32.08l16.2-15.74,16.2,15.74h-.33Z" fill="#763c11"/>
    <path d="m231.62,50h-32.08l16.2-15.74,16.2,15.74h-.33Z" fill="#763c11"/>
    <path d="m288.1,50h-32.08l16.2-15.74,16.2,15.74h-.33Z" fill="#763c11"/>
    <g>
      <path d="m275.93,77.57c0,2.05-1.66,3.8-3.7,3.8s-3.7-1.75-3.7-3.8,1.66-3.61,3.7-3.61,3.7,1.57,3.7,3.61Z" fill="#fbcf95"/>
      <path d="m275.93,136.09c0,2.05-1.66,3.8-3.7,3.8s-3.7-1.75-3.7-3.8,1.66-3.61,3.7-3.61,3.7,1.57,3.7,3.61Z" fill="#fbcf95"/>
    </g>
    <g>
      <path d="m219.44,77.57c0,2.05-1.66,3.8-3.7,3.8s-3.7-1.75-3.7-3.8,1.66-3.61,3.7-3.61,3.7,1.57,3.7,3.61Z" fill="#fbcf95"/>
      <path d="m219.44,136.09c0,2.05-1.66,3.8-3.7,3.8s-3.7-1.75-3.7-3.8,1.66-3.61,3.7-3.61,3.7,1.57,3.7,3.61Z" fill="#fbcf95"/>
    </g>
    <g>
      <path d="m162.96,77.57c0,2.05-1.66,3.8-3.7,3.8s-3.7-1.75-3.7-3.8,1.66-3.61,3.7-3.61,3.7,1.57,3.7,3.61Z" fill="#fbcf95"/>
      <path d="m162.96,136.09c0,2.05-1.66,3.8-3.7,3.8s-3.7-1.75-3.7-3.8,1.66-3.61,3.7-3.61,3.7,1.57,3.7,3.61Z" fill="#fbcf95"/>
    </g>
    <g>
      <path d="m162.96,77.57c0,2.05-1.66,3.8-3.7,3.8s-3.7-1.75-3.7-3.8,1.66-3.61,3.7-3.61,3.7,1.57,3.7,3.61Z" fill="#fbcf95"/>
      <path d="m162.96,136.09c0,2.05-1.66,3.8-3.7,3.8s-3.7-1.75-3.7-3.8,1.66-3.61,3.7-3.61,3.7,1.57,3.7,3.61Z" fill="#fbcf95"/>
    </g>
    <g>
      <path d="m106.48,77.57c0,2.05-1.66,3.8-3.7,3.8s-3.7-1.75-3.7-3.8,1.66-3.61,3.7-3.61,3.7,1.57,3.7,3.61Z" fill="#fbcf95"/>
      <path d="m106.48,136.09c0,2.05-1.66,3.8-3.7,3.8s-3.7-1.75-3.7-3.8,1.66-3.61,3.7-3.61,3.7,1.57,3.7,3.61Z" fill="#fbcf95"/>
    </g>
  </g>
</svg>