<svg width="40" height="40" viewBox="0 0 40 40" fill="none" xmlns="http://www.w3.org/2000/svg">
<g clip-path="url(#clip0)">
<path d="M19.7392 11.5469C16.5445 11.5469 13.9453 14.1461 13.9453 17.3409C13.9453 21.3564 19.7449 28.2157 19.7449 28.2157C19.7449 28.2157 25.5332 21.1589 25.5332 17.3409C25.5332 14.1461 22.9341 11.5469 19.7392 11.5469ZM21.4874 19.0374C21.0054 19.5193 20.3723 19.7603 19.7392 19.7603C19.1062 19.7603 18.473 19.5193 17.9912 19.0374C17.0272 18.0735 17.0272 16.5051 17.9912 15.5412C18.4579 15.0742 19.0788 14.817 19.7392 14.817C20.3996 14.817 21.0204 15.0743 21.4874 15.5412C22.4514 16.5051 22.4514 18.0735 21.4874 19.0374Z" fill="#FFF"/>
</g>
<circle cx="20" cy="20" r="19.5" stroke="#FFF"/>
<defs>
<clipPath id="clip0">
<rect x="11" y="11" width="17.78" height="17.78" fill="white"/>
</clipPath>
</defs>
</svg>
