<svg width="16" height="16" viewBox="0 0 16 16" fill="none" xmlns="http://www.w3.org/2000/svg">
<g clip-path="url(#clip0)">
<path d="M14.8288 1.45456H2.90908C2.87318 1.45456 2.84042 1.46806 2.80677 1.47818L2.5138 0.515421C2.42063 0.20925 2.13822 0 1.81817 0H0.363648C0.162818 0 0 0.162818 0 0.363648V1.09091C0 1.29174 0.162818 1.45456 0.363648 1.45456H1.2795L3.55153 8.92081L2.70297 9.91078C2.36758 10.302 2.21656 10.8412 2.37092 11.3328C2.56834 11.9616 3.12331 12.3636 3.76316 12.3636H14.1818C14.3827 12.3636 14.5455 12.2008 14.5455 12V11.2727C14.5455 11.0719 14.3827 10.9091 14.1818 10.9091H3.76313L4.91584 9.56425C4.94482 9.53043 4.96613 9.49224 4.98812 9.45451H12.0348C12.5984 9.45451 13.1113 9.12901 13.3513 8.61904L15.8889 3.22688C15.9616 3.0717 16 2.89947 16 2.72864V2.62565C16 1.97891 15.4756 1.45456 14.8288 1.45456Z" fill="white"/>
<path d="M4.36362 16C5.16695 16 5.81818 15.3488 5.81818 14.5455C5.81818 13.7421 5.16695 13.0909 4.36362 13.0909C3.56029 13.0909 2.90906 13.7421 2.90906 14.5455C2.90906 15.3488 3.56029 16 4.36362 16Z" fill="white"/>
<path d="M13.0909 16C13.8942 16 14.5455 15.3488 14.5455 14.5455C14.5455 13.7421 13.8942 13.0909 13.0909 13.0909C12.2876 13.0909 11.6364 13.7421 11.6364 14.5455C11.6364 15.3488 12.2876 16 13.0909 16Z" fill="white"/>
</g>
<defs>
<clipPath id="clip0">
<rect width="16" height="16" fill="white"/>
</clipPath>
</defs>
</svg>
